Input #0, mov,mp4,m4a,3gp,3g2,mj2, from 'C:\Users\sulta\OneDrive - Invesense Asset Management Limited\Documents\remotion\benchmarks\.cache\source\whatsapp-video-2026-05-19-at-71230-pm-5-476ee0ba.mp4':
  Metadata:
    major_brand     : mp42
    minor_version   : 0
    compatible_brands: mp42isom
  Duration: 00:01:09.60, start: 0.000000, bitrate: 1427 kb/s
  Stream #0:0[0x1](und): Video: h264 (Baseline) (avc1 / 0x31637661), yuv420p(tv, bt709, progressive), 576x1024, 1362 kb/s, 30 fps, 30 tbr, 600 tbn (default)
  Stream #0:1[0x2](und): Audio: aac (LC) (mp4a / 0x6134706D), 44100 Hz, stereo, fltp, 63 kb/s (default)
Stream mapping:
  Stream #0:0 -> #0:0 (h264 (native) -> wrapped_avframe (native))
Press [q] to stop, [?] for help
Output #0, null, to 'NUL':
  Metadata:
    major_brand     : mp42
    minor_version   : 0
    compatible_brands: mp42isom
    encoder         : Lavf62.12.101
  Stream #0:0(und): Video: wrapped_avframe, yuv420p(tv, bt709, progressive), 576x1024, q=2-31, 200 kb/s, 30 fps, 30 tbn (default)
    Metadata:
      encoder         : Lavc62.28.101 wrapped_avframe
[Parsed_scdet_0 @ 000001d5a7b82d80] lavfi.scd.score: 29.353, lavfi.scd.time: 12.2
[Parsed_scdet_0 @ 000001d5a7b82d80] lavfi.scd.score: 19.930, lavfi.scd.time: 16.333333
[Parsed_scdet_0 @ 000001d5a7b82d80] lavfi.scd.score: 76.179, lavfi.scd.time: 65.566667
[Parsed_scdet_0 @ 000001d5a7b82d80] lavfi.scd.score: 19.588, lavfi.scd.time: 65.6
[out#0/null @ 000001d5a7b83c80] video:865KiB audio:0KiB subtitle:0KiB other streams:0KiB global headers:0KiB muxing overhead: unknown
frame= 2088 fps=0.0 q=-0.0 Lsize=N/A time=00:01:09.60 bitrate=N/A speed= 424x elapsed=0:00:00.16    
